<?xml version="1.0" encoding="UTF-8" standalone="no"?>
<!-- Created with Inkscape (http://www.inkscape.org/) -->

<svg
   width="50mm"
   height="49.083733mm"
   viewBox="0 0 50 49.083732"
   version="1.1"
   id="svg5"
   inkscape:version="1.2.2 (b0a8486541, 2022-12-01)"
   sodipodi:docname="icon.svg"
   xmlns:inkscape="http://www.inkscape.org/namespaces/inkscape"
   xmlns:sodipodi="http://sodipodi.sourceforge.net/DTD/sodipodi-0.dtd"
   xmlns:xlink="http://www.w3.org/1999/xlink"
   xmlns="http://www.w3.org/2000/svg"
   xmlns:svg="http://www.w3.org/2000/svg">
  <sodipodi:namedview
     id="namedview7"
     pagecolor="#ffffff"
     bordercolor="#666666"
     borderopacity="1.0"
     inkscape:showpageshadow="2"
     inkscape:pageopacity="0.0"
     inkscape:pagecheckerboard="0"
     inkscape:deskcolor="#d1d1d1"
     inkscape:document-units="mm"
     showgrid="false"
     inkscape:zoom="0.85198632"
     inkscape:cx="166.66934"
     inkscape:cy="248.24342"
     inkscape:window-width="1920"
     inkscape:window-height="1052"
     inkscape:window-x="0"
     inkscape:window-y="0"
     inkscape:window-maximized="1"
     inkscape:current-layer="layer1" />
  <defs
     id="defs2">
    <linearGradient
       inkscape:collect="always"
       id="linearGradient1076">
      <stop
         style="stop-color:#fffa00;stop-opacity:1;"
         offset="0"
         id="stop1072" />
      <stop
         style="stop-color:#ffffff;stop-opacity:0;"
         offset="1"
         id="stop1074" />
    </linearGradient>
    <linearGradient
       inkscape:collect="always"
       id="linearGradient1505">
      <stop
         style="stop-color:#16e449;stop-opacity:1;"
         offset="0"
         id="stop1501" />
      <stop
         style="stop-color:#9a9a9a;stop-opacity:1;"
         offset="1"
         id="stop1503" />
    </linearGradient>
    <linearGradient
       inkscape:collect="always"
       id="linearGradient1431">
      <stop
         style="stop-color:#ffffff;stop-opacity:1;"
         offset="0"
         id="stop1427" />
      <stop
         style="stop-color:#9a9a9a;stop-opacity:1;"
         offset="1"
         id="stop1429" />
    </linearGradient>
    <linearGradient
       inkscape:collect="always"
       id="linearGradient1405">
      <stop
         style="stop-color:#28bdf4;stop-opacity:1;"
         offset="0"
         id="stop1401" />
      <stop
         style="stop-color:#16e449;stop-opacity:1;"
         offset="1"
         id="stop1403" />
    </linearGradient>
    <linearGradient
       inkscape:collect="always"
       xlink:href="#linearGradient1405"
       id="linearGradient1407"
       x1="90.481171"
       y1="42.713547"
       x2="89.916161"
       y2="58.210518"
       gradientUnits="userSpaceOnUse"
       gradientTransform="matrix(1,0,0,2.6955551,0,-51.176356)" />
    <linearGradient
       inkscape:collect="always"
       xlink:href="#linearGradient1431"
       id="linearGradient1433"
       x1="94.878311"
       y1="85.305695"
       x2="95.070457"
       y2="96.924362"
       gradientUnits="userSpaceOnUse"
       gradientTransform="matrix(0.60122438,0,0,1,57.190687,0)" />
    <clipPath
       clipPathUnits="userSpaceOnUse"
       id="clipPath1439">
      <path
         style="color:#000000;fill:#000000;stroke-width:1;stroke-linecap:round;-inkscape-stroke:none"
         d="M 100.03516,38.5 C 67.160264,37.746175 49.937895,56.833418 42.078124,75.408203 38.148239,84.695596 36.479573,93.8545 36.181641,100.5293 c -0.148966,3.3374 0.02865,6.03052 0.515625,7.95508 0.243489,0.96227 0.512075,1.75242 1.162109,2.43164 0.325017,0.3396 0.812951,0.6575 1.400392,0.73046 0.587438,0.073 1.162087,-0.12498 1.572265,-0.39843 l 29.275389,-19.51758 20.406252,10.20312 19.558597,-29.337887 28.72851,38.304687 a 1.5,1.5 0 0 0 2.09961,0.29883 1.5,1.5 0 0 0 0.29883,-2.09961 L 109.92773,67.404297 89.486327,98.066405 69.892577,88.269532 39.824218,108.31445 c -0.08736,-0.18775 -0.126071,-0.20014 -0.218749,-0.5664 -0.357871,-1.41432 -0.566259,-3.93868 -0.425781,-7.08594 0.280958,-6.294514 1.890323,-15.170226 5.66211,-24.083986 7.543569,-17.827519 23.418599,-35.80511 55.123045,-35.078125 38.274417,0.877636 58.305127,31.101959 58.535157,58.511721 0.30236,36.02826 -28.29869,58.4549 -58.501954,58.48828 -15.296177,0.0169 -21.612331,-8.30525 -28.642577,-16.53711 -3.515125,-4.11593 -7.148034,-8.20778 -12.097658,-10.92187 -4.949621,-2.7141 -11.181699,-3.94817 -19.511716,-2.51954 a 1.5,1.5 0 0 0 -1.224611,1.73243 1.5,1.5 0 0 0 1.732423,1.22461 c 7.81273,-1.33992 13.188704,-0.20392 17.560546,2.19335 4.37184,2.39728 7.774827,6.1577 11.259765,10.23829 C 76.0441,152.07133 83.584259,161.51817 100.00195,161.5 131.69813,161.465 161.81582,137.62121 161.5,99.98828 161.25777,71.125096 139.8699,39.413413 100.03516,38.5 Z"
         id="path1441" />
    </clipPath>
    <linearGradient
       inkscape:collect="always"
       xlink:href="#linearGradient1431"
       id="linearGradient1466"
       gradientUnits="userSpaceOnUse"
       gradientTransform="matrix(0.41935316,0,0,0.48670177,29.815026,49.24025)"
       x1="94.878311"
       y1="85.305695"
       x2="95.383324"
       y2="99.173508" />
    <linearGradient
       inkscape:collect="always"
       xlink:href="#linearGradient1505"
       id="linearGradient1493"
       gradientUnits="userSpaceOnUse"
       gradientTransform="matrix(0.4210075,0,0,0.26027965,-126.89729,101.90409)"
       x1="120.98515"
       y1="91.865738"
       x2="132.69563"
       y2="94.986389" />
    <radialGradient
       inkscape:collect="always"
       xlink:href="#linearGradient1076"
       id="radialGradient1078"
       cx="131.06587"
       cy="47.353046"
       fx="131.06587"
       fy="47.353046"
       r="19.324478"
       gradientTransform="matrix(1.1939116,0.6905931,-0.32202681,0.55672658,-10.16623,-69.26809)"
       gradientUnits="userSpaceOnUse" />
  </defs>
  <g
     inkscape:label="Ebene 1"
     inkscape:groupmode="layer"
     id="layer1"
     transform="matrix(0.3894885,0,0,0.3894885,-13.48756,-14.402901)">
    <path
       style="display:none;fill:none;stroke:#000000;stroke-width:3;stroke-linecap:round;stroke-linejoin:miter;stroke-dasharray:none;stroke-opacity:1"
       d="M 140,110 110,70 90,100 70,90 40,110 c -6.192828,4.12855 -4.579403,-71.480811 60,-70 39.05462,0.895526 59.76387,31.863499 60,60 0.30909,36.83063 -29.05025,59.96579 -60,60 -31.713902,0.0351 -27.714469,-35.53711 -60,-30"
       id="path2251"
       sodipodi:nodetypes="ccccssssc"
       inkscape:label="logo" />
    <path
       style="display:inline;fill:none;stroke:#000000;stroke-width:6;stroke-linecap:round;stroke-linejoin:miter;stroke-dasharray:none;stroke-opacity:1"
       d="M 140,110 110,70 90,100 70,90 40,110 c -6.192828,4.12855 -4.579403,-71.480811 60,-70 39.05462,0.895526 59.76387,31.863499 60,60 0.30909,36.83063 -29.05025,59.96579 -60,60 -31.713902,0.0351 -27.714469,-35.53711 -60,-30"
       id="path1443"
       sodipodi:nodetypes="ccccssssc"
       inkscape:label="logo_outline" />
    <g
       id="g1437"
       clip-path="url(#clipPath1439)">
      <rect
         style="opacity:1;fill:url(#linearGradient1407);fill-opacity:1;stroke:none;stroke-width:4.92545;stroke-linecap:round;stroke-linejoin:round"
         id="rect1012"
         width="149.6803"
         height="141.13916"
         x="18.619209"
         y="30.182657"
         inkscape:label="sky_ground" />
      <rect
         style="opacity:1;fill:url(#linearGradient1433);fill-opacity:1;stroke:none;stroke-width:2.84226;stroke-linecap:round;stroke-linejoin:round"
         id="rect1425"
         width="54.371056"
         height="49.442719"
         x="89.044647"
         y="65.125206"
         inkscape:label="mountain_big" />
      <rect
         style="opacity:1;fill:url(#linearGradient1466);fill-opacity:1;stroke:none;stroke-width:1.65603;stroke-linecap:round;stroke-linejoin:round"
         id="rect1464"
         width="37.923733"
         height="24.06386"
         x="52.033123"
         y="80.936806"
         inkscape:label="mountain_small" />
      <rect
         style="opacity:1;fill:url(#linearGradient1493);fill-opacity:1;stroke:none;stroke-width:1.21343;stroke-linecap:round;stroke-linejoin:round"
         id="rect1491"
         width="38.073338"
         height="12.868935"
         x="-104.59154"
         y="118.85485"
         inkscape:label="mountain_transition"
         transform="matrix(0.83909503,-0.54398487,0.8606736,0.5091571,0,0)" />
      <ellipse
         style="fill:url(#radialGradient1078);fill-opacity:1;stroke:none;stroke-width:6.00001;stroke-linecap:round;stroke-linejoin:round"
         id="path1039"
         cx="135.36249"
         cy="44.755463"
         rx="33.107071"
         ry="21.21966"
         inkscape:label="sun" />
    </g>
    <text
       xml:space="preserve"
       style="font-size:12.7px;line-height:1.25;font-family:sans-serif;letter-spacing:0px;word-spacing:0px;stroke-width:0.264583"
       x="67.954269"
       y="124.86467"
       id="text1262"><tspan
         sodipodi:role="line"
         id="tspan1260"
         style="font-style:normal;font-variant:normal;font-weight:normal;font-stretch:normal;font-size:12.7px;font-family:'Baloo 2';-inkscape-font-specification:'Baloo 2, ';stroke-width:0.264583"
         x="67.954269"
         y="124.86467">Gipfelkreuzer</tspan></text>
  </g>
</svg>
